{
  "accessors": [
    {
      "bufferView": 2,
      "componentType": 5126,
      "count": 230,
      "max": [
        2.3781630992889404,
        0.7273030281066895,
        3.2275140285491943
      ],
      "min": [
        1.3894660472869873,
        -0.6937789916992188,
        2.3414549827575684
      ],
      "type": "VEC3"
    },
    {
      "bufferView": 2,
      "byteOffset": 2760,
      "componentType": 5126,
      "count": 230,
      "max": [
        0.8944271802902222,
        0.8944271802902222,
        1.0
      ],
      "min": [
        -0.8944271802902222,
        -0.8944271802902222,
        -0.7191637754440308
      ],
      "type": "VEC3"
    },
    {
      "bufferView": 1,
      "componentType": 5126,
      "count": 230,
      "max": [
        0.9882069826126099,
        0.9965639710426331
      ],
      "min": [
        0.0040339999832212925,
        0.009523999877274036
      ],
      "type": "VEC2"
    },
    {
      "bufferView": 0,
      "componentType": 5125,
      "count": 636,
      "type": "SCALAR"
    },
    {
      "bufferView": 2,
      "byteOffset": 5520,
      "componentType": 5126,
      "count": 208,
      "max": [
        0.9535520076751709,
        0.7685019969940186,
        4.907961845397949
      ],
      "min": [
        -0.749351978302002,
        -0.7233440279960632,
        0.14136099815368652
      ],
      "type": "VEC3"
    },
    {
      "bufferView": 2,
      "byteOffset": 8016,
      "componentType": 5126,
      "count": 208,
      "max": [
        0.5773502588272095,
        0.5773502588272095,
        0.5773502588272095
      ],
      "min": [
        -0.5773502588272095,
        -0.5773502588272095,
        -0.5773502588272095
      ],
      "type": "VEC3"
    },
    {
      "bufferView": 1,
      "byteOffset": 1840,
      "componentType": 5126,
      "count": 208,
      "max": [
        0.8436089754104614,
        0.9938679933547974
      ],
      "min": [
        0.01056199986487627,
        0.02347699925303459
      ],
      "type": "VEC2"
    },
    {
      "bufferView": 0,
      "byteOffset": 2544,
      "componentType": 5125,
      "count": 468,
      "type": "SCALAR"
    },
    {
      "bufferView": 2,
      "byteOffset": 10512,
      "componentType": 5126,
      "count": 469,
      "max": [
        2.0402979850769043,
        0.8827229738235474,
        5.154387950897217
      ],
      "min": [
        -1.0,
        -0.841717004776001,
        0.0025679999962449074
      ],
      "type": "VEC3"
    },
    {
      "bufferView": 2,
      "byteOffset": 16140,
      "componentType": 5126,
      "count": 469,
      "max": [
        0.8715614080429077,
        1.0,
        0.7071068286895752
      ],
      "min": [
        -0.7071068286895752,
        -1.0,
        -0.8944271802902222
      ],
      "type": "VEC3"
    },
    {
      "bufferView": 1,
      "byteOffset": 3504,
      "componentType": 5126,
      "count": 469,
      "max": [
        0.9800180196762085,
        0.991707980632782
      ],
      "min": [
        0.0028729999903589487,
        0.007282000035047531
      ],
      "type": "VEC2"
    },
    {
      "bufferView": 0,
      "byteOffset": 4416,
      "componentType": 5125,
      "count": 2049,
      "type": "SCALAR"
    }
  ],
  "asset": {
    "extras": {
      "author": "Ridellco (https://sketchfab.com/ridellco)",
      "license": "CC-BY-4.0 (http://creativecommons.org/licenses/by/4.0/)",
      "source": "https://sketchfab.com/3d-models/server-rack-and-console-v3-24ebe6f197c44e0a93f4010045c4a997",
      "title": "Server Rack and Console v3"
    },
    "generator": "Sketchfab-12.68.0",
    "version": "2.0"
  },
  "bufferViews": [
    {
      "buffer": 0,
      "byteLength": 12612,
      "name": "floatBufferViews",
      "target": 34963
    },
    {
      "buffer": 0,
      "byteLength": 7256,
      "byteOffset": 12612,
      "byteStride": 8,
      "name": "floatBufferViews",
      "target": 34962
    },
    {
      "buffer": 0,
      "byteLength": 21768,
      "byteOffset": 19868,
      "byteStride": 12,
      "name": "floatBufferViews",
      "target": 34962
    }
  ],
  "buffers": [
    {
      "byteLength": 41636,
      "uri": "scene.bin"
    }
  ],
  "images": [
    {
      "uri": "textures/Cube12_auv_baseColor.png"
    },
    {
      "uri": "textures/Cube1_auv_baseColor.png"
    },
    {
      "uri": "textures/console_auv_baseColor.png"
    }
  ],
  "materials": [
    {
      "doubleSided": true,
      "name": "Cube12_auv",
      "pbrMetallicRoughness": {
        "baseColorTexture": {
          "index": 0
        },
        "metallicFactor": 0.0,
        "roughnessFactor": 0.6
      }
    },
    {
      "doubleSided": true,
      "name": "Cube1_auv",
      "pbrMetallicRoughness": {
        "baseColorTexture": {
          "index": 1
        },
        "metallicFactor": 0.0,
        "roughnessFactor": 0.6
      }
    },
    {
      "doubleSided": true,
      "name": "console_auv",
      "pbrMetallicRoughness": {
        "baseColorTexture": {
          "index": 2
        },
        "metallicFactor": 0.0,
        "roughnessFactor": 0.6
      }
    }
  ],
  "meshes": [
    {
      "name": "Object_0",
      "primitives": [
        {
          "attributes": {
            "NORMAL": 1,
            "POSITION": 0,
            "TEXCOORD_0": 2
          },
          "indices": 3,
          "material": 2,
          "mode": 4
        }
      ]
    },
    {
      "name": "Object_1",
      "primitives": [
        {
          "attributes": {
            "NORMAL": 5,
            "POSITION": 4,
            "TEXCOORD_0": 6
          },
          "indices": 7,
          "material": 0,
          "mode": 4
        }
      ]
    },
    {
      "name": "Object_2",
      "primitives": [
        {
          "attributes": {
            "NORMAL": 9,
            "POSITION": 8,
            "TEXCOORD_0": 10
          },
          "indices": 11,
          "material": 1,
          "mode": 4
        }
      ]
    }
  ],
  "nodes": [
    {
      "children": [
        1
      ],
      "matrix": [
        1.0,
        0.0,
        0.0,
        0.0,
        0.0,
        2.220446049250313e-16,
        -1.0,
        0.0,
        0.0,
        1.0,
        2.220446049250313e-16,
        0.0,
        0.0,
        0.0,
        0.0,
        1.0
      ],
      "name": "Sketchfab_model"
    },
    {
      "children": [
        2,
        3,
        4
      ],
      "name": "ServerV3+console.obj.cleaner"
    },
    {
      "mesh": 0,
      "name": "Object_2"
    },
    {
      "mesh": 1,
      "name": "Object_3"
    },
    {
      "mesh": 2,
      "name": "Object_4"
    }
  ],
  "samplers": [
    {
      "magFilter": 9729,
      "minFilter": 9987,
      "wrapS": 10497,
      "wrapT": 10497
    }
  ],
  "scene": 0,
  "scenes": [
    {
      "name": "Sketchfab_Scene",
      "nodes": [
        0
      ]
    }
  ],
  "textures": [
    {
      "sampler": 0,
      "source": 0
    },
    {
      "sampler": 0,
      "source": 1
    },
    {
      "sampler": 0,
      "source": 2
    }
  ]
}
