{
  "accessors": [
    {
      "bufferView": 2,
      "componentType": 5126,
      "count": 20,
      "max": [
        0.5,
        0.5,
        0.5
      ],
      "min": [
        0.19425815343856812,
        -0.5,
        -0.5
      ],
      "type": "VEC3"
    },
    {
      "bufferView": 2,
      "byteOffset": 240,
      "componentType": 5126,
      "count": 20,
      "max": [
        1.0,
        0.9934069514274597,
        0.9934069514274597
      ],
      "min": [
        0.11464165896177292,
        -0.9934069514274597,
        -0.9934069514274597
      ],
      "type": "VEC3"
    },
    {
      "bufferView": 3,
      "componentType": 5126,
      "count": 20,
      "max": [
        0.9933667182922363,
        0.9999997019767761,
        0.12648150324821472,
        1.0
      ],
      "min": [
        -0.9933703541755676,
        0.11372099071741104,
        -0.12605735659599304,
        1.0
      ],
      "type": "VEC4"
    },
    {
      "bufferView": 1,
      "componentType": 5126,
      "count": 20,
      "max": [
        0.43403178453445435,
        0.9361761808395386
      ],
      "min": [
        0.14615345001220703,
        0.765465497970581
      ],
      "type": "VEC2"
    },
    {
      "bufferView": 0,
      "componentType": 5125,
      "count": 30,
      "type": "SCALAR"
    },
    {
      "bufferView": 2,
      "byteOffset": 480,
      "componentType": 5126,
      "count": 1858,
      "max": [
        -0.10321637988090515,
        2.1385979652404785,
        4.382242202758789
      ],
      "min": [
        -2.914896011352539,
        -0.00479646772146225,
        1.7499217987060547
      ],
      "type": "VEC3"
    },
    {
      "bufferView": 2,
      "byteOffset": 22776,
      "componentType": 5126,
      "count": 1858,
      "max": [
        1.0,
        1.0,
        1.0
      ],
      "min": [
        -0.9993957281112671,
        -1.0,
        -1.0
      ],
      "type": "VEC3"
    },
    {
      "bufferView": 3,
      "byteOffset": 320,
      "componentType": 5126,
      "count": 1858,
      "max": [
        0.9999833106994629,
        0.9999995827674866,
        0.9999995827674866,
        1.0
      ],
      "min": [
        -0.9998762011528015,
        -0.9999995827674866,
        -0.9977259635925293,
        1.0
      ],
      "type": "VEC4"
    },
    {
      "bufferView": 1,
      "byteOffset": 160,
      "componentType": 5126,
      "count": 1858,
      "max": [
        0.9866238236427307,
        0.9953453540802002
      ],
      "min": [
        0.016478121280670166,
        0.006362408399581909
      ],
      "type": "VEC2"
    },
    {
      "bufferView": 0,
      "byteOffset": 120,
      "componentType": 5125,
      "count": 7830,
      "type": "SCALAR"
    }
  ],
  "asset": {
    "extras": {
      "author": "Paul (https://sketchfab.com/nathan.d1563)",
      "license": "CC-BY-4.0 (http://creativecommons.org/licenses/by/4.0/)",
      "source": "https://sketchfab.com/3d-models/low-poly-pc-cable-464d4da5b46842ed8cb37b7c50168a60",
      "title": "Low poly PC Cable"
    },
    "generator": "Sketchfab-12.66.0",
    "version": "2.0"
  },
  "bufferViews": [
    {
      "buffer": 0,
      "byteLength": 31440,
      "name": "floatBufferViews",
      "target": 34963
    },
    {
      "buffer": 0,
      "byteLength": 15024,
      "byteOffset": 31440,
      "byteStride": 8,
      "name": "floatBufferViews",
      "target": 34962
    },
    {
      "buffer": 0,
      "byteLength": 45072,
      "byteOffset": 46464,
      "byteStride": 12,
      "name": "floatBufferViews",
      "target": 34962
    },
    {
      "buffer": 0,
      "byteLength": 30048,
      "byteOffset": 91536,
      "byteStride": 16,
      "name": "floatBufferViews",
      "target": 34962
    }
  ],
  "buffers": [
    {
      "byteLength": 121584,
      "uri": "scene.bin"
    }
  ],
  "images": [
    {
      "uri": "textures/Maps_baseColor.jpeg"
    },
    {
      "uri": "textures/Maps_metallicRoughness.png"
    },
    {
      "uri": "textures/Maps_normal.png"
    }
  ],
  "materials": [
    {
      "name": "Maps",
      "normalTexture": {
        "index": 2,
        "scale": 0.1053734756097561
      },
      "occlusionTexture": {
        "index": 1
      },
      "pbrMetallicRoughness": {
        "baseColorTexture": {
          "index": 0
        },
        "metallicRoughnessTexture": {
          "index": 1
        },
        "roughnessFactor": 0.4346417682926829
      }
    }
  ],
  "meshes": [
    {
      "name": "Conection_Maps_0",
      "primitives": [
        {
          "attributes": {
            "NORMAL": 1,
            "POSITION": 0,
            "TANGENT": 2,
            "TEXCOORD_0": 3
          },
          "indices": 4,
          "material": 0,
          "mode": 4
        }
      ]
    },
    {
      "name": "Pc_cableMesh_Maps_0",
      "primitives": [
        {
          "attributes": {
            "NORMAL": 6,
            "POSITION": 5,
            "TANGENT": 7,
            "TEXCOORD_0": 8
          },
          "indices": 9,
          "material": 0,
          "mode": 4
        }
      ]
    }
  ],
  "nodes": [
    {
      "children": [
        1
      ],
      "matrix": [
        1.0,
        0.0,
        0.0,
        0.0,
        0.0,
        2.220446049250313e-16,
        -1.0,
        0.0,
        0.0,
        1.0,
        2.220446049250313e-16,
        0.0,
        0.0,
        0.0,
        0.0,
        1.0
      ],
      "name": "Sketchfab_model"
    },
    {
      "children": [
        2
      ],
      "matrix": [
        1.0,
        0.0,
        0.0,
        0.0,
        0.0,
        0.0,
        1.0,
        0.0,
        0.0,
        -1.0,
        0.0,
        0.0,
        0.0,
        0.0,
        0.0,
        1.0
      ],
      "name": "PC-Cable.fbx"
    },
    {
      "children": [
        3
      ],
      "name": "RootNode"
    },
    {
      "children": [
        4,
        6
      ],
      "matrix": [
        1.0,
        0.0,
        0.0,
        0.0,
        0.0,
        1.0,
        0.0,
        0.0,
        0.0,
        0.0,
        1.0,
        0.0,
        1.5196706056594849,
        0.0,
        -3.066082000732422,
        1.0
      ],
      "name": "Cable"
    },
    {
      "children": [
        5
      ],
      "matrix": [
        0.09171754866838455,
        0.0,
        0.0,
        0.0,
        0.0,
        0.4438779950141907,
        0.0,
        0.0,
        0.0,
        0.0,
        0.282384991645813,
        0.0,
        -2.953941822052002,
        2.180957317352295,
        3.933314323425293,
        1.0
      ],
      "name": "Conection"
    },
    {
      "mesh": 0,
      "name": "Conection_Maps_0"
    },
    {
      "children": [
        7
      ],
      "name": "Pc_cableMesh"
    },
    {
      "mesh": 1,
      "name": "Pc_cableMesh_Maps_0"
    }
  ],
  "samplers": [
    {
      "magFilter": 9729,
      "minFilter": 9987,
      "wrapS": 10497,
      "wrapT": 10497
    }
  ],
  "scene": 0,
  "scenes": [
    {
      "name": "Sketchfab_Scene",
      "nodes": [
        0
      ]
    }
  ],
  "textures": [
    {
      "sampler": 0,
      "source": 0
    },
    {
      "sampler": 0,
      "source": 1
    },
    {
      "sampler": 0,
      "source": 2
    }
  ]
}
