{
  "accessors": [
    {
      "bufferView": 2,
      "componentType": 5126,
      "count": 2889,
      "max": [
        19.899999618530273,
        18.0,
        87.69999694824219
      ],
      "min": [
        -19.899999618530273,
        -22.0,
        -0.0
      ],
      "type": "VEC3"
    },
    {
      "bufferView": 2,
      "byteOffset": 34668,
      "componentType": 5126,
      "count": 2889,
      "max": [
        1.0,
        1.0,
        1.0
      ],
      "min": [
        -1.0,
        -1.0,
        -1.0
      ],
      "type": "VEC3"
    },
    {
      "bufferView": 1,
      "componentType": 5126,
      "count": 2889,
      "max": [
        0.9960700273513794,
        0.9953200221061707
      ],
      "min": [
        0.001180000021122396,
        0.004840000066906214
      ],
      "type": "VEC2"
    },
    {
      "bufferView": 0,
      "componentType": 5125,
      "count": 6477,
      "type": "SCALAR"
    },
    {
      "bufferView": 2,
      "byteOffset": 69336,
      "componentType": 5126,
      "count": 82,
      "max": [
        9.084380149841309,
        -16.26729965209961,
        61.39126968383789
      ],
      "min": [
        -9.084380149841309,
        -17.176380157470703,
        24.83698081970215
      ],
      "type": "VEC3"
    },
    {
      "bufferView": 2,
      "byteOffset": 70320,
      "componentType": 5126,
      "count": 82,
      "max": [
        0.9966798424720764,
        0.0,
        0.8550497889518738
      ],
      "min": [
        -0.9966798424720764,
        0.0,
        -1.0
      ],
      "type": "VEC3"
    },
    {
      "bufferView": 1,
      "byteOffset": 23112,
      "componentType": 5126,
      "count": 82,
      "max": [
        0.0,
        0.0
      ],
      "min": [
        0.0,
        0.0
      ],
      "type": "VEC2"
    },
    {
      "bufferView": 0,
      "byteOffset": 25908,
      "componentType": 5125,
      "count": 240,
      "type": "SCALAR"
    },
    {
      "bufferView": 2,
      "byteOffset": 71304,
      "componentType": 5126,
      "count": 1340,
      "max": [
        14.219400405883789,
        -14.733650207519531,
        73.70218658447266
      ],
      "min": [
        -14.219400405883789,
        -18.3079891204834,
        59.99892044067383
      ],
      "type": "VEC3"
    },
    {
      "bufferView": 2,
      "byteOffset": 87384,
      "componentType": 5126,
      "count": 1340,
      "max": [
        1.0,
        0.0,
        1.0
      ],
      "min": [
        -1.0,
        -1.0,
        -1.0
      ],
      "type": "VEC3"
    },
    {
      "bufferView": 1,
      "byteOffset": 23768,
      "componentType": 5126,
      "count": 1340,
      "max": [
        0.995169997215271,
        0.9956899881362915
      ],
      "min": [
        0.005080000031739473,
        0.011640000157058239
      ],
      "type": "VEC2"
    },
    {
      "bufferView": 0,
      "byteOffset": 26868,
      "componentType": 5125,
      "count": 3996,
      "type": "SCALAR"
    },
    {
      "bufferView": 2,
      "byteOffset": 103464,
      "componentType": 5126,
      "count": 8,
      "max": [
        18.43025016784668,
        -21.377639770507813,
        77.69999694824219
      ],
      "min": [
        -18.43025016784668,
        -21.377639770507813,
        5.248579978942871
      ],
      "type": "VEC3"
    },
    {
      "bufferView": 2,
      "byteOffset": 103560,
      "componentType": 5126,
      "count": 8,
      "max": [
        0.0,
        -1.0,
        -0.0
      ],
      "min": [
        0.0,
        -1.0,
        -0.0
      ],
      "type": "VEC3"
    },
    {
      "bufferView": 1,
      "byteOffset": 34488,
      "componentType": 5126,
      "count": 8,
      "max": [
        0.9904999732971191,
        0.9866300225257874
      ],
      "min": [
        0.5936700105667114,
        0.1054299995303154
      ],
      "type": "VEC2"
    },
    {
      "bufferView": 0,
      "byteOffset": 42852,
      "componentType": 5125,
      "count": 12,
      "type": "SCALAR"
    }
  ],
  "asset": {
    "extras": {
      "author": "maxdragonn (https://sketchfab.com/maxdragon)",
      "license": "CC-BY-4.0 (http://creativecommons.org/licenses/by/4.0/)",
      "source": "https://sketchfab.com/3d-models/ibm-2401-61f8ce78c76b46dfade5ccc7ad020a1b",
      "title": "IBM 2401"
    },
    "generator": "Sketchfab-12.67.0",
    "version": "2.0"
  },
  "bufferViews": [
    {
      "buffer": 0,
      "byteLength": 42900,
      "name": "floatBufferViews",
      "target": 34963
    },
    {
      "buffer": 0,
      "byteLength": 34552,
      "byteOffset": 42900,
      "byteStride": 8,
      "name": "floatBufferViews",
      "target": 34962
    },
    {
      "buffer": 0,
      "byteLength": 103656,
      "byteOffset": 77452,
      "byteStride": 12,
      "name": "floatBufferViews",
      "target": 34962
    }
  ],
  "buffers": [
    {
      "byteLength": 181108,
      "uri": "scene.bin"
    }
  ],
  "images": [
    {
      "uri": "textures/ibm_2401_baseColor.png"
    },
    {
      "uri": "textures/tape_baseColor.png"
    },
    {
      "uri": "textures/ibm_2401_tape_baseColor.png"
    },
    {
      "uri": "textures/ibm_729_glass_baseColor.png"
    }
  ],
  "materials": [
    {
      "doubleSided": true,
      "name": "ibm_2401",
      "pbrMetallicRoughness": {
        "baseColorTexture": {
          "index": 0
        },
        "metallicFactor": 0.0,
        "roughnessFactor": 0.4571545397612924
      }
    },
    {
      "doubleSided": true,
      "name": "tape",
      "pbrMetallicRoughness": {
        "baseColorTexture": {
          "index": 1
        },
        "metallicFactor": 0.0,
        "roughnessFactor": 0.0
      }
    },
    {
      "doubleSided": true,
      "name": "ibm_2401_tape",
      "pbrMetallicRoughness": {
        "baseColorTexture": {
          "index": 2
        },
        "metallicFactor": 0.0,
        "roughnessFactor": 0.6
      }
    },
    {
      "alphaMode": "BLEND",
      "doubleSided": true,
      "name": "ibm_729_glass",
      "pbrMetallicRoughness": {
        "baseColorFactor": [
          1.0,
          1.0,
          1.0,
          0.0321109145188455
        ],
        "baseColorTexture": {
          "index": 3
        },
        "metallicFactor": 0.0,
        "roughnessFactor": 0.0
      }
    }
  ],
  "meshes": [
    {
      "name": "ibm_2401_0",
      "primitives": [
        {
          "attributes": {
            "NORMAL": 1,
            "POSITION": 0,
            "TEXCOORD_0": 2
          },
          "indices": 3,
          "material": 0,
          "mode": 4
        }
      ]
    },
    {
      "name": "ibm_2401_1",
      "primitives": [
        {
          "attributes": {
            "NORMAL": 5,
            "POSITION": 4,
            "TEXCOORD_0": 6
          },
          "indices": 7,
          "material": 1,
          "mode": 4
        }
      ]
    },
    {
      "name": "ibm_2401_2",
      "primitives": [
        {
          "attributes": {
            "NORMAL": 9,
            "POSITION": 8,
            "TEXCOORD_0": 10
          },
          "indices": 11,
          "material": 2,
          "mode": 4
        }
      ]
    },
    {
      "name": "ibm_2401_3",
      "primitives": [
        {
          "attributes": {
            "NORMAL": 13,
            "POSITION": 12,
            "TEXCOORD_0": 14
          },
          "indices": 15,
          "material": 3,
          "mode": 4
        }
      ]
    }
  ],
  "nodes": [
    {
      "children": [
        1
      ],
      "matrix": [
        1.0,
        0.0,
        0.0,
        0.0,
        0.0,
        2.220446049250313e-16,
        -1.0,
        0.0,
        0.0,
        1.0,
        2.220446049250313e-16,
        0.0,
        0.0,
        0.0,
        0.0,
        1.0
      ],
      "name": "Sketchfab_model"
    },
    {
      "children": [
        2,
        4
      ],
      "name": "Root"
    },
    {
      "children": [
        3
      ],
      "matrix": [
        -0.29086000000000006,
        0.9551700000000001,
        -0.05519000000000001,
        0.0,
        -0.7711,
        -0.19988000000000003,
        0.6045200000000001,
        0.0,
        0.5663900000000001,
        0.21839000000000003,
        0.7946700000000001,
        0.0,
        4.076250000000001,
        1.00545,
        5.903860000000001,
        1.0
      ],
      "name": "Lamp"
    },
    {
      "name": "Lamp"
    },
    {
      "children": [
        5,
        6,
        7,
        8
      ],
      "name": "ibm_2401"
    },
    {
      "mesh": 0,
      "name": "ibm_2401_0"
    },
    {
      "mesh": 1,
      "name": "ibm_2401_1"
    },
    {
      "mesh": 2,
      "name": "ibm_2401_2"
    },
    {
      "mesh": 3,
      "name": "ibm_2401_3"
    }
  ],
  "samplers": [
    {
      "magFilter": 9729,
      "minFilter": 9987,
      "wrapS": 10497,
      "wrapT": 10497
    }
  ],
  "scene": 0,
  "scenes": [
    {
      "name": "Sketchfab_Scene",
      "nodes": [
        0
      ]
    }
  ],
  "textures": [
    {
      "sampler": 0,
      "source": 0
    },
    {
      "sampler": 0,
      "source": 1
    },
    {
      "sampler": 0,
      "source": 2
    },
    {
      "sampler": 0,
      "source": 3
    }
  ]
}
